<svg id="svg" version="1.1" xmlns="http://www.w3.org/2000/svg" xmlns:xlink="http://www.w3.org/1999/xlink" width="400" height="110.9219168085624" viewBox="0, 0, 400,110.9219168085624"><g id="svgg"><path id="path0" d="M18.500 1.176 C 15.595 1.530,13.505 2.262,10.248 4.064 C 8.778 4.878,6.442 6.929,4.833 8.818 C 2.819 11.184,1.155 14.480,0.509 17.379 C 0.423 17.766,0.293 18.308,0.221 18.583 C 0.148 18.858,0.068 39.727,0.043 64.958 L -0.004 110.833 10.165 110.833 L 20.333 110.833 20.333 92.583 L 20.333 74.333 55.000 74.333 L 89.667 74.333 89.667 92.583 L 89.667 110.833 100.002 110.833 L 110.337 110.833 110.286 64.708 C 110.239 21.295,110.218 18.520,109.942 17.500 C 107.507 8.505,100.380 2.183,91.536 1.169 C 89.790 0.969,20.143 0.976,18.500 1.176 M126.988 24.792 C 126.981 37.877,126.942 62.590,126.900 79.708 L 126.824 110.833 136.995 110.833 L 147.167 110.833 147.172 88.375 C 147.176 76.023,147.221 51.310,147.273 33.458 L 147.368 1.000 137.184 1.000 L 127.000 1.000 126.988 24.792 M88.292 21.843 C 89.866 22.169,89.833 21.798,89.833 39.305 L 89.833 53.833 55.125 53.833 L 20.417 53.833 20.457 38.708 C 20.506 20.422,20.320 21.764,22.833 21.625 C 25.472 21.478,87.531 21.685,88.292 21.843 " stroke="none" fill="#047ceb" fill-rule="evenodd"></path><path id="path1" d="M160.500 16.290 C 160.500 24.702,160.450 49.415,160.389 71.208 L 160.278 110.833 170.556 110.833 L 180.833 110.833 180.833 88.639 L 180.833 66.445 195.611 66.556 C 203.739 66.617,219.939 66.667,231.611 66.667 L 252.833 66.667 252.833 88.750 L 252.833 110.833 263.083 110.833 L 273.333 110.833 273.333 56.000 L 273.333 1.167 263.167 1.167 L 253.000 1.167 253.000 23.500 L 253.000 45.833 217.001 45.833 L 181.001 45.833 180.959 23.458 L 180.917 1.083 170.708 1.040 L 160.500 0.997 160.500 16.290 M308.333 1.280 C 303.017 2.143,297.656 5.378,294.574 9.583 C 294.305 9.950,294.043 10.287,293.992 10.333 C 293.754 10.547,292.415 12.869,292.070 13.667 C 291.932 13.987,291.748 14.400,291.663 14.583 C 291.076 15.843,290.551 18.197,290.321 20.601 C 290.222 21.642,290.181 35.883,290.213 57.934 L 290.265 93.583 290.635 95.000 C 292.523 102.239,297.988 108.146,304.959 110.484 L 306.001 110.833 345.332 110.833 L 384.662 110.833 386.176 110.330 C 391.281 108.634,396.429 104.035,398.578 99.250 C 398.825 98.700,399.096 98.100,399.179 97.917 C 400.061 95.989,400.000 99.100,400.000 56.171 C 400.000 17.198,399.997 16.878,399.663 15.901 C 397.147 8.538,390.903 3.073,383.224 1.511 C 381.654 1.192,310.234 0.971,308.333 1.280 M377.905 21.853 C 379.565 22.100,379.632 22.165,379.840 23.750 C 380.035 25.234,380.000 77.555,379.804 77.751 C 379.704 77.851,376.822 75.614,374.333 73.504 C 373.829 73.076,373.033 72.432,372.563 72.072 C 372.094 71.711,370.556 70.476,369.147 69.326 C 367.737 68.176,365.608 66.447,364.417 65.484 C 363.225 64.520,361.284 62.949,360.103 61.991 C 358.921 61.034,357.301 59.725,356.502 59.083 C 352.241 55.663,350.909 54.584,350.833 54.496 C 350.587 54.207,345.833 50.500,345.708 50.500 C 345.528 50.500,345.284 50.779,343.592 52.917 C 342.867 53.833,342.227 54.621,342.170 54.667 C 342.113 54.712,341.475 55.500,340.753 56.417 C 340.031 57.333,339.394 58.121,339.338 58.167 C 339.282 58.212,338.883 58.700,338.452 59.250 C 338.020 59.800,337.568 60.362,337.447 60.500 C 336.278 61.824,332.821 66.208,332.863 66.314 C 332.919 66.456,334.758 67.997,337.568 70.256 C 338.476 70.986,339.870 72.108,340.666 72.750 C 341.463 73.392,343.045 74.661,344.182 75.571 C 345.319 76.481,346.287 77.273,346.333 77.330 C 346.379 77.388,347.348 78.181,348.487 79.092 C 349.626 80.004,351.388 81.415,352.404 82.228 C 353.419 83.041,354.587 83.987,355.000 84.330 C 355.412 84.674,356.350 85.437,357.083 86.027 C 357.817 86.616,359.428 87.920,360.664 88.924 L 362.912 90.750 338.081 90.799 C 311.359 90.851,311.575 90.857,311.029 90.023 C 310.655 89.453,310.592 24.103,310.964 22.877 C 311.193 22.123,311.237 22.098,312.752 21.845 C 314.083 21.622,376.407 21.630,377.905 21.853 M126.879 65.167 C 126.879 65.579,126.911 65.748,126.951 65.542 C 126.991 65.335,126.991 64.998,126.951 64.792 C 126.911 64.585,126.879 64.754,126.879 65.167 " stroke="none" fill="#040404" fill-rule="evenodd"></path><path id="path2" d="M26.544 21.620 C 26.797 21.658,27.172 21.657,27.377 21.617 C 27.582 21.578,27.375 21.546,26.917 21.548 C 26.458 21.549,26.291 21.581,26.544 21.620 M30.958 21.618 C 31.165 21.657,31.502 21.657,31.708 21.618 C 31.915 21.578,31.746 21.545,31.333 21.545 C 30.921 21.545,30.752 21.578,30.958 21.618 M35.458 21.621 C 35.756 21.658,36.244 21.658,36.542 21.621 C 36.840 21.584,36.596 21.553,36.000 21.553 C 35.404 21.553,35.160 21.584,35.458 21.621 M147.223 27.833 C 147.223 28.521,147.252 28.802,147.288 28.458 C 147.324 28.115,147.324 27.552,147.288 27.208 C 147.252 26.865,147.223 27.146,147.223 27.833 M147.212 39.167 C 147.212 39.579,147.245 39.748,147.284 39.542 C 147.324 39.335,147.324 38.998,147.284 38.792 C 147.245 38.585,147.212 38.754,147.212 39.167 M20.379 39.833 C 20.379 40.246,20.411 40.415,20.451 40.208 C 20.491 40.002,20.491 39.665,20.451 39.458 C 20.411 39.252,20.379 39.421,20.379 39.833 M147.212 42.000 C 147.212 42.412,147.245 42.581,147.284 42.375 C 147.324 42.169,147.324 41.831,147.284 41.625 C 147.245 41.419,147.212 41.587,147.212 42.000 M20.381 42.750 C 20.382 43.208,20.415 43.376,20.453 43.123 C 20.491 42.869,20.490 42.494,20.451 42.289 C 20.411 42.084,20.380 42.292,20.381 42.750 M20.381 45.583 C 20.382 46.042,20.415 46.209,20.453 45.956 C 20.491 45.703,20.490 45.328,20.451 45.123 C 20.411 44.918,20.380 45.125,20.381 45.583 M126.892 78.250 C 126.892 79.075,126.920 79.434,126.955 79.047 C 126.990 78.660,126.990 77.985,126.956 77.547 C 126.922 77.109,126.893 77.425,126.892 78.250 M126.899 91.333 C 126.899 92.571,126.925 93.077,126.957 92.458 C 126.989 91.840,126.989 90.827,126.957 90.208 C 126.925 89.590,126.899 90.096,126.899 91.333 " stroke="none" fill="#0480b4" fill-rule="evenodd"></path><path id="path3" d="" stroke="none" fill="#04443c" fill-rule="evenodd"></path><path id="path4" d="M126.875 71.750 C 126.877 72.117,126.911 72.247,126.951 72.040 C 126.991 71.832,126.990 71.532,126.948 71.373 C 126.906 71.214,126.874 71.383,126.875 71.750 " stroke="none" fill="#040440" fill-rule="evenodd"></path></g></svg>