<svg id="svg" version="1.1" xmlns="http://www.w3.org/2000/svg" xmlns:xlink="http://www.w3.org/1999/xlink" width="400" height="108.7463556851312" viewBox="0, 0, 400,108.7463556851312"><g id="svgg"><path id="path0" d="M160.667 54.333 L 160.667 108.667 170.833 108.667 L 181.000 108.667 181.000 86.917 L 181.000 65.167 217.000 65.167 L 253.000 65.167 253.000 86.917 L 253.000 108.667 263.167 108.667 L 273.333 108.667 273.333 54.333 L 273.333 0.000 263.167 0.000 L 253.000 0.000 253.000 22.250 L 253.000 44.500 217.000 44.500 L 181.000 44.500 181.000 22.250 L 181.000 0.000 170.833 0.000 L 160.667 0.000 160.667 54.333 M307.648 0.074 C 307.606 0.116,307.311 0.187,306.994 0.232 C 305.998 0.372,304.103 0.971,302.833 1.546 C 302.273 1.800,300.105 3.030,300.000 3.153 C 299.954 3.207,299.582 3.476,299.172 3.750 C 297.605 4.802,293.500 9.199,293.500 9.826 C 293.500 9.922,293.421 10.000,293.323 10.000 C 293.226 10.000,293.188 10.067,293.238 10.148 C 293.289 10.229,293.218 10.388,293.081 10.502 C 292.945 10.615,292.833 10.811,292.833 10.937 C 292.833 11.063,292.775 11.167,292.703 11.167 C 292.599 11.167,292.336 11.668,292.090 12.333 C 292.073 12.379,291.962 12.642,291.842 12.917 C 291.413 13.904,291.344 14.094,291.146 14.833 C 291.035 15.246,290.912 15.696,290.873 15.833 C 290.254 18.015,290.252 18.132,290.254 55.000 C 290.255 92.582,290.223 90.673,290.895 93.917 C 291.227 95.519,293.194 99.799,293.844 100.333 C 293.900 100.379,294.014 100.537,294.098 100.684 C 294.649 101.651,297.360 104.461,298.625 105.377 C 299.015 105.659,299.333 105.952,299.333 106.028 C 299.333 106.104,299.416 106.167,299.516 106.167 C 299.616 106.167,299.935 106.335,300.223 106.542 C 300.805 106.958,302.021 107.649,303.167 108.213 L 303.917 108.583 345.229 108.626 L 386.542 108.669 387.979 107.979 C 389.333 107.330,391.356 106.105,391.858 105.631 C 391.982 105.513,392.421 105.144,392.834 104.811 C 394.054 103.826,395.504 102.312,396.167 101.332 C 396.304 101.128,396.654 100.646,396.943 100.261 C 397.498 99.522,398.592 97.486,398.964 96.500 C 399.085 96.179,399.349 95.467,399.550 94.917 L 399.917 93.917 399.917 54.734 C 399.917 26.344,399.866 15.440,399.731 15.150 C 399.630 14.930,399.451 14.450,399.336 14.083 C 399.085 13.291,397.682 10.286,397.506 10.167 C 397.438 10.121,397.290 9.906,397.175 9.689 C 396.172 7.785,391.115 2.833,390.174 2.833 C 390.078 2.833,390.000 2.773,390.000 2.699 C 390.000 2.594,387.883 1.502,387.500 1.409 C 387.454 1.398,387.192 1.296,386.917 1.182 C 386.138 0.861,384.495 0.322,383.929 0.201 C 383.355 0.079,307.769 -0.047,307.648 0.074 M378.188 20.421 C 379.650 20.729,379.487 20.562,379.767 22.031 C 380.050 23.512,380.121 76.500,379.841 76.500 C 379.753 76.500,379.494 76.313,379.265 76.083 C 379.036 75.854,378.808 75.667,378.759 75.667 C 378.646 75.667,378.064 75.201,377.513 74.669 C 377.276 74.441,377.046 74.254,377.000 74.253 C 376.954 74.251,376.654 74.012,376.333 73.720 C 376.012 73.429,375.450 72.990,375.083 72.745 C 374.717 72.500,374.248 72.108,374.042 71.874 C 373.835 71.640,373.667 71.509,373.667 71.583 C 373.667 71.658,373.496 71.519,373.286 71.276 C 373.077 71.032,372.853 70.833,372.788 70.833 C 372.677 70.833,372.308 70.544,371.403 69.750 C 371.195 69.567,370.784 69.229,370.491 69.000 C 370.198 68.771,369.644 68.321,369.259 68.000 C 368.875 67.679,368.121 67.079,367.585 66.667 C 367.049 66.254,366.455 65.761,366.264 65.572 C 366.073 65.382,365.579 64.996,365.167 64.713 C 364.754 64.430,364.266 64.060,364.082 63.891 C 363.897 63.722,363.372 63.283,362.915 62.917 C 361.721 61.960,361.316 61.622,360.971 61.292 C 360.804 61.131,360.595 61.000,360.508 61.000 C 360.421 61.000,360.290 60.903,360.217 60.785 C 360.143 60.667,359.569 60.161,358.941 59.660 C 355.289 56.753,355.066 56.571,353.925 55.583 C 353.714 55.400,353.187 54.987,352.755 54.667 C 352.324 54.346,351.741 53.877,351.461 53.625 C 351.180 53.373,350.905 53.166,350.850 53.166 C 350.795 53.165,350.478 52.922,350.144 52.624 C 349.811 52.327,349.260 51.858,348.919 51.583 C 348.579 51.308,348.175 50.970,348.023 50.831 C 347.870 50.692,347.484 50.396,347.164 50.172 C 346.845 49.949,346.471 49.650,346.333 49.508 C 345.849 49.008,345.379 49.101,344.945 49.783 C 344.723 50.131,344.363 50.608,344.146 50.842 C 343.928 51.076,343.526 51.563,343.253 51.925 C 342.388 53.070,342.260 53.221,341.792 53.652 C 341.540 53.884,341.333 54.141,341.333 54.223 C 341.333 54.306,341.127 54.614,340.875 54.910 C 340.623 55.205,340.154 55.765,339.833 56.153 C 339.512 56.541,339.081 57.037,338.875 57.255 C 338.669 57.473,338.500 57.705,338.500 57.770 C 338.500 57.888,338.426 57.979,337.595 58.883 C 337.359 59.139,337.167 59.402,337.167 59.466 C 337.167 59.531,336.935 59.803,336.652 60.070 C 336.370 60.337,336.017 60.749,335.869 60.986 C 335.560 61.480,335.361 61.730,334.762 62.383 C 334.526 62.639,334.333 62.916,334.333 62.998 C 334.333 63.080,334.199 63.246,334.034 63.366 C 333.870 63.485,333.529 63.858,333.276 64.193 L 332.818 64.802 333.367 65.317 C 333.669 65.600,333.973 65.832,334.042 65.833 C 334.110 65.833,334.300 65.965,334.464 66.125 C 334.627 66.285,335.077 66.633,335.464 66.898 C 335.850 67.162,336.167 67.443,336.167 67.521 C 336.167 67.599,336.448 67.842,336.792 68.062 C 337.135 68.281,337.575 68.601,337.769 68.772 C 337.963 68.943,338.374 69.271,338.681 69.500 C 338.988 69.729,339.392 70.068,339.578 70.253 C 339.764 70.438,340.340 70.909,340.857 71.301 C 341.374 71.692,342.029 72.235,342.314 72.506 C 342.598 72.778,342.887 73.000,342.957 73.001 C 343.026 73.001,343.308 73.210,343.583 73.465 C 343.858 73.720,344.383 74.151,344.750 74.423 C 345.117 74.694,345.604 75.083,345.833 75.286 C 346.983 76.306,348.667 77.671,348.667 77.584 C 348.667 77.529,348.841 77.657,349.054 77.867 C 349.571 78.378,350.554 79.206,351.108 79.599 C 351.356 79.774,351.722 80.085,351.923 80.292 C 352.124 80.498,352.373 80.667,352.477 80.667 C 352.582 80.667,352.667 80.725,352.667 80.797 C 352.667 80.869,352.873 81.051,353.125 81.202 C 353.377 81.352,353.861 81.725,354.201 82.029 C 355.239 82.961,355.748 83.384,355.795 83.354 C 355.820 83.338,356.023 83.496,356.246 83.705 C 356.709 84.138,356.725 84.151,358.125 85.222 C 358.698 85.661,359.167 86.090,359.167 86.176 C 359.167 86.263,359.260 86.334,359.375 86.335 C 359.490 86.337,359.905 86.637,360.299 87.002 C 360.692 87.368,361.067 87.668,361.132 87.670 C 361.197 87.672,361.662 88.047,362.167 88.502 L 363.083 89.329 337.500 89.290 C 309.284 89.246,311.236 89.329,310.871 88.160 C 310.586 87.248,310.572 22.333,310.856 21.483 C 311.312 20.118,309.112 20.202,345.197 20.183 C 373.100 20.169,377.126 20.198,378.188 20.421 " stroke="none" fill="#ffffff" fill-rule="evenodd"></path><path id="path1" d="M16.667 0.262 C 13.884 0.992,10.245 2.749,9.030 3.949 C 8.909 4.069,8.752 4.167,8.681 4.167 C 8.493 4.167,5.832 6.823,5.070 7.771 C 4.711 8.218,4.378 8.621,4.330 8.667 C 3.815 9.160,2.401 11.791,1.533 13.872 C 0.315 16.793,0.334 15.990,0.333 64.625 L 0.333 108.667 10.500 108.667 L 20.667 108.667 20.667 90.750 L 20.667 72.833 55.333 72.833 L 90.000 72.833 90.000 90.750 L 90.000 108.667 100.252 108.667 L 110.504 108.667 110.453 62.958 L 110.402 17.250 110.049 16.000 C 109.394 13.684,108.910 12.498,107.805 10.500 C 105.155 5.706,99.980 1.777,94.427 0.342 C 92.678 -0.110,18.376 -0.186,16.667 0.262 M127.167 54.333 L 127.167 108.667 137.250 108.667 L 147.333 108.667 147.333 54.333 L 147.333 0.000 137.250 0.000 L 127.167 0.000 127.167 54.333 M87.761 20.338 C 90.215 20.762,90.000 19.113,90.000 37.530 L 90.000 52.667 55.333 52.667 L 20.667 52.667 20.667 38.090 C 20.667 19.980,20.590 20.745,22.442 20.410 C 23.934 20.141,86.221 20.071,87.761 20.338 " stroke="none" fill="#047ceb" fill-rule="evenodd"></path><path id="path2" d="" stroke="none" fill="#f4fcfc" fill-rule="evenodd"></path><path id="path3" d="" stroke="none" fill="#3cc0f0" fill-rule="evenodd"></path><path id="path4" d="" stroke="none" fill="#ffffff" fill-rule="evenodd"></path></g></svg>